<?xml version="1.0" standalone="no"?>
<!DOCTYPE svg PUBLIC "-//W3C//DTD SVG 20010904//EN"
 "http://www.w3.org/TR/2001/REC-SVG-20010904/DTD/svg10.dtd">
<svg version="1.0" xmlns="http://www.w3.org/2000/svg"
 width="263.000000pt" height="270.000000pt" viewBox="0 0 263.000000 270.000000"
 preserveAspectRatio="xMidYMid meet">

<g transform="translate(0.000000,270.000000) scale(0.100000,-0.100000)"
fill="#000000" stroke="none">
<path d="M1268 2653 c12 -2 32 -2 45 0 12 2 2 4 -23 4 -25 0 -35 -2 -22 -4z"/>
<path d="M1373 2653 c15 -2 37 -2 50 0 12 2 0 4 -28 4 -27 0 -38 -2 -22 -4z"/>
<path d="M1173 2643 c9 -2 23 -2 30 0 6 3 -1 5 -18 5 -16 0 -22 -2 -12 -5z"/>
<path d="M1040 2610 c0 -5 5 -10 11 -10 5 0 7 5 4 10 -3 6 -8 10 -11 10 -2 0
-4 -4 -4 -10z"/>
<path d="M988 2603 c7 -3 16 -2 19 1 4 3 -2 6 -13 5 -11 0 -14 -3 -6 -6z"/>
<path d="M883 2569 c-29 -11 -53 -25 -53 -30 0 -6 -4 -7 -10 -4 -5 3 -22 -1
-37 -10 -21 -12 -22 -14 -6 -10 41 11 32 -12 -13 -33 -48 -24 -84 -19 -43 5
13 8 17 12 8 10 -28 -9 -130 -78 -125 -85 2 -4 -3 -16 -11 -27 -15 -20 -15
-20 -10 3 l5 22 -31 -22 c-17 -12 -25 -24 -19 -26 7 -2 12 -10 12 -18 0 -9 17
-1 48 22 57 44 62 49 40 41 -10 -3 -20 -2 -23 3 -3 4 7 7 22 5 16 -1 40 6 56
17 15 11 74 42 132 69 59 28 105 55 105 63 0 8 6 17 13 19 6 3 8 6 2 6 -5 0
-34 -9 -62 -20z m7 -17 c0 -13 -12 -22 -22 -16 -10 6 -1 24 13 24 5 0 9 -4 9
-8z m-315 -181 c3 -5 2 -12 -3 -15 -5 -3 -9 1 -9 9 0 17 3 19 12 6z"/>
<path d="M1038 2583 c7 -3 16 -2 19 1 4 3 -2 6 -13 5 -11 0 -14 -3 -6 -6z"/>
<path d="M965 2565 c-25 -12 -26 -14 -5 -9 14 4 29 10 35 15 12 12 5 11 -30
-6z"/>
<path d="M1198 2533 c12 -2 30 -2 40 0 9 3 -1 5 -23 4 -22 0 -30 -2 -17 -4z"/>
<path d="M1105 2523 c-52 -11 -157 -45 -152 -49 2 -2 17 0 33 7 16 6 65 19
109 29 44 10 69 18 55 18 -14 0 -34 -2 -45 -5z"/>
<path d="M1288 2513 c6 -2 18 -2 25 0 6 3 1 5 -13 5 -14 0 -19 -2 -12 -5z"/>
<path d="M1120 2495 c-273 -56 -529 -221 -684 -439 -147 -206 -238 -479 -235
-700 l2 -91 8 105 c16 188 62 365 131 505 76 152 215 321 344 416 119 88 299
164 479 202 39 8 59 15 45 15 -14 0 -54 -6 -90 -13z"/>
<path d="M1897 2489 c7 -7 15 -10 18 -7 3 3 -2 9 -12 12 -14 6 -15 5 -6 -5z"/>
<path d="M1991 2466 c-8 -9 -12 -18 -10 -19 2 -2 40 -29 85 -60 44 -31 87 -63
94 -71 7 -9 17 -13 23 -9 5 3 7 2 4 -4 -3 -5 17 -32 45 -59 36 -34 43 -39 24
-14 -24 29 -26 35 -11 40 14 5 14 8 -6 25 -13 12 -19 14 -14 5 8 -13 6 -13 -8
-1 -9 7 -15 17 -12 21 6 11 -70 72 -79 63 -3 -3 -6 -1 -6 5 0 13 -58 59 -80
64 -8 2 -20 9 -25 16 -9 11 -13 11 -24 -2z m69 -43 c0 -9 6 -13 15 -10 14 6
28 -7 31 -30 1 -6 -5 -9 -13 -6 -12 5 -12 7 -1 14 9 6 8 9 -7 9 -26 0 -67 28
-60 40 8 13 35 0 35 -17z"/>
<path d="M825 2422 c-136 -71 -201 -118 -296 -212 -217 -216 -350 -515 -363
-819 -6 -139 -2 -128 14 34 12 116 46 272 77 344 84 196 168 325 291 443 104
100 182 155 306 214 50 24 84 44 76 43 -8 0 -55 -21 -105 -47z"/>
<path d="M1800 2445 c14 -8 30 -14 35 -14 6 0 -1 6 -15 14 -14 8 -29 14 -35
14 -5 0 1 -6 15 -14z"/>
<path d="M1864 2416 c11 -9 24 -16 30 -16 12 0 7 5 -24 19 -24 11 -24 11 -6
-3z"/>
<path d="M1800 2416 c0 -2 7 -7 16 -10 8 -3 12 -2 9 4 -6 10 -25 14 -25 6z"/>
<path d="M1910 2397 c0 -2 30 -24 68 -48 37 -24 113 -89 170 -144 56 -55 102
-98 102 -95 0 14 -169 175 -224 214 -81 57 -116 79 -116 73z"/>
<path d="M1895 2366 c11 -8 25 -20 32 -26 7 -5 15 -10 19 -10 16 0 122 -88
202 -169 47 -47 72 -67 54 -44 -63 81 -187 187 -277 237 -27 15 -41 21 -30 12z"/>
<path d="M1065 2318 c-3 -13 -4 -77 -3 -143 l3 -120 87 -3 c64 -2 96 1 117 13
58 29 65 89 15 121 l-25 17 21 19 c11 10 20 28 20 39 0 56 -47 79 -162 79 -62
0 -68 -2 -73 -22z m166 -28 c21 -12 25 -40 7 -58 -7 -7 -36 -12 -65 -12 l-53
0 0 40 0 40 46 0 c25 0 54 -5 65 -10z m17 -122 c18 -18 14 -56 -7 -68 -11 -5
-42 -10 -70 -10 l-51 0 0 45 0 45 58 0 c32 0 63 -5 70 -12z"/>
<path d="M1377 2333 c-4 -3 -7 -69 -7 -145 l0 -138 25 0 c23 0 25 4 25 43 0
33 6 49 24 66 l24 22 48 -65 c39 -54 53 -66 76 -66 15 0 28 3 28 6 0 3 -27 40
-61 81 l-61 75 62 63 61 62 -33 -5 c-24 -3 -51 -22 -100 -70 l-68 -66 0 72 c0
63 -2 72 -18 72 -10 0 -22 -3 -25 -7z"/>
<path d="M485 2280 c-10 -11 -24 -20 -32 -20 -7 0 -13 -5 -13 -12 0 -6 -10
-23 -22 -37 -13 -14 3 -1 35 29 31 30 57 56 57 57 0 7 -8 2 -25 -17z"/>
<path d="M368 2155 c-25 -34 -22 -43 3 -11 12 15 20 29 18 31 -2 1 -12 -7 -21
-20z"/>
<path d="M308 2083 c-10 -2 -18 -12 -18 -21 0 -25 -16 -46 -29 -38 -8 5 -8 13
0 29 17 33 -5 7 -31 -37 -13 -22 -19 -36 -13 -33 7 4 16 0 20 -8 7 -12 18 -1
51 50 22 36 40 64 39 64 -1 -1 -10 -3 -19 -6z"/>
<path d="M912 1958 c25 -7 43 -6 55 1 14 8 6 10 -37 10 -55 -1 -55 -1 -18 -11z"/>
<path d="M1046 1959 c2 -4 93 -10 201 -14 109 -4 204 -12 211 -17 6 -6 12 -22
12 -37 0 -18 3 -22 9 -13 5 9 23 12 51 10 38 -3 47 1 77 31 18 18 32 35 31 36
-6 6 -596 10 -592 4z"/>
<path d="M1797 1935 c-21 -10 -34 -12 -47 -5 -35 19 -107 12 -135 -12 -37 -33
-44 -90 -16 -129 l22 -29 -99 -118 c-125 -147 -132 -153 -185 -159 -38 -5 -48
-1 -79 26 -45 39 -205 249 -210 276 -3 12 -10 18 -19 16 -59 -18 -149 -5 -134
19 3 5 0 12 -6 16 -8 5 -9 3 -4 -7 6 -11 5 -11 -5 -2 -7 6 -13 25 -14 41 -1
17 -4 28 -8 25 -11 -6 -10 -61 2 -84 16 -28 69 -53 119 -53 39 -1 46 -4 63
-36 10 -19 23 -34 27 -33 5 1 12 -4 15 -13 3 -8 1 -12 -4 -9 -6 3 -7 -1 -4 -9
3 -9 11 -13 17 -9 6 3 7 1 3 -5 -4 -7 -2 -20 4 -29 10 -16 11 -16 5 2 -3 11
-2 16 2 11 4 -4 8 -18 8 -29 0 -12 6 -21 12 -20 7 2 20 -12 28 -30 14 -28 14
-30 0 -13 -8 11 -15 24 -15 30 0 5 -3 7 -6 4 -6 -6 20 -61 63 -136 l25 -42 22
32 c45 68 140 56 177 -21 l16 -33 60 103 c33 57 81 143 108 190 47 85 48 87
77 78 78 -22 153 51 128 126 -14 43 -9 51 35 59 20 4 33 11 30 17 -9 14 -46
11 -78 -6z m-43 -46 c18 -14 26 -30 26 -50 0 -17 -4 -28 -10 -24 -5 3 -7 0 -4
-9 13 -34 -77 -49 -121 -20 -34 22 -35 86 -3 108 31 22 80 20 112 -5z m-244
-349 c-6 -11 -13 -20 -16 -20 -2 0 0 9 6 20 6 11 13 20 16 20 2 0 0 -9 -6 -20z
m-320 -50 c6 -11 8 -20 6 -20 -3 0 -10 9 -16 20 -6 11 -8 20 -6 20 3 0 10 -9
16 -20z m290 1 c-5 -11 -15 -23 -21 -27 -6 -3 -3 5 6 20 20 30 30 35 15 7z"/>
<path d="M194 1884 c-9 -14 -23 -23 -30 -20 -22 9 -81 -167 -109 -328 -17 -98
-20 -190 -6 -167 7 11 10 10 18 -4 8 -13 12 1 17 56 14 152 51 297 112 437 25
57 24 67 -2 26z"/>
<path d="M821 1846 c-1 -44 3 -52 38 -87 21 -22 47 -39 58 -39 39 0 83 -69
114 -177 18 -63 18 -64 -2 -84 -17 -17 -19 -25 -10 -51 13 -36 9 -44 -26 -53
-51 -12 -118 -60 -208 -147 -118 -113 -163 -131 -210 -83 -44 43 -30 150 22
174 27 12 56 2 71 -26 13 -22 42 -10 42 18 0 11 -15 36 -34 55 -45 45 -101 47
-168 5 -87 -55 -128 -136 -128 -252 0 -220 194 -378 463 -379 122 0 260 54
370 146 16 13 33 22 38 18 5 -3 9 1 9 8 0 8 17 31 39 52 l39 38 28 -35 c15
-19 29 -46 31 -59 2 -17 1 -19 -6 -8 -5 8 -7 19 -4 25 4 5 2 7 -2 2 -5 -4 -18
1 -29 10 -11 10 -5 -2 14 -27 l35 -44 3 32 3 33 19 -23 c18 -23 18 -23 -11
-38 -27 -15 -28 -17 -14 -35 12 -16 14 -17 9 -2 -9 26 6 21 45 -15 18 -18 31
-27 27 -20 -4 6 -2 12 3 12 6 0 11 -5 11 -11 0 -5 5 -7 11 -3 8 4 8 0 0 -15
-10 -17 -9 -20 4 -15 8 4 15 3 15 0 0 -3 -31 -22 -70 -41 -38 -19 -70 -37 -70
-39 0 -7 87 13 135 32 33 12 57 30 70 51 22 35 25 35 120 1 214 -76 456 12
543 198 24 50 27 69 27 157 0 83 -4 107 -22 141 -45 84 -116 134 -194 134 -33
0 -47 -6 -75 -34 -21 -21 -34 -44 -34 -60 0 -33 21 -34 54 -1 32 32 41 31 77
-4 24 -25 29 -38 29 -79 0 -67 -27 -102 -78 -102 -47 0 -76 19 -192 125 -150
137 -253 176 -372 141 -70 -20 -68 -20 -68 3 0 11 -11 32 -24 47 -18 21 -32
28 -61 28 -29 0 -43 -7 -61 -28 -13 -15 -24 -36 -24 -47 0 -55 -41 4 -152 217
l-78 152 -56 4 c-70 6 -114 44 -125 110 l-6 43 -2 -49z m235 -404 c-9 -11 -14
-27 -10 -38 5 -17 5 -18 -6 -2 -9 14 -7 23 7 42 10 13 20 22 22 20 2 -2 -3
-12 -13 -22z m289 -72 c0 -29 -32 -41 -41 -16 -9 24 4 48 23 44 12 -2 18 -12
18 -28z m114 -532 c11 -11 13 -10 7 2 -4 8 1 4 12 -10 15 -18 17 -27 9 -32
-12 -7 -57 28 -57 44 0 12 14 10 29 -4z"/>
<path d="M1213 1813 c37 -2 97 -2 135 0 37 2 6 3 -68 3 -74 0 -105 -1 -67 -3z"/>
<path d="M2440 1625 c0 -5 5 -17 10 -25 5 -8 10 -10 10 -5 0 6 -5 17 -10 25
-5 8 -10 11 -10 5z"/>
<path d="M2592 1560 c0 -14 2 -19 5 -12 2 6 2 18 0 25 -3 6 -5 1 -5 -13z"/>
<path d="M2513 1405 c0 -33 2 -45 4 -27 2 18 2 45 0 60 -2 15 -4 0 -4 -33z"/>
<path d="M2614 1315 c0 -66 1 -92 3 -57 2 34 2 88 0 120 -2 31 -3 3 -3 -63z"/>
<path d="M2512 1260 c-11 -235 -109 -505 -253 -697 -60 -80 -188 -196 -284
-259 -70 -45 -102 -62 -200 -106 -11 -5 -47 -17 -80 -28 -33 -10 -52 -19 -42
-19 29 -1 207 68 272 106 252 146 439 378 534 660 36 107 64 268 58 339 l-3
49 -2 -45z"/>
<path d="M2472 1220 c0 -14 2 -19 5 -12 2 6 2 18 0 25 -3 6 -5 1 -5 -13z"/>
<path d="M2592 1104 c-6 -43 -13 -88 -15 -99 -2 -11 -2 -14 0 -7 3 7 9 10 14
7 5 -4 9 0 10 7 0 7 4 4 8 -6 7 -19 8 -19 13 2 3 12 3 21 -1 20 -18 -2 -31 3
-31 13 0 5 5 7 11 3 9 -5 10 1 5 21 -4 17 -3 31 4 35 7 4 8 20 2 45 -7 37 -8
35 -20 -41z"/>
<path d="M2427 994 c-32 -107 -133 -337 -156 -354 -4 -3 -20 -23 -36 -45 -17
-22 -36 -44 -43 -48 -7 -5 -10 -12 -7 -18 4 -5 0 -9 -7 -9 -7 0 -24 -15 -37
-33 -61 -80 -376 -275 -451 -278 -18 -1 -20 -3 -7 -6 37 -10 229 81 332 157
106 79 216 196 293 315 48 74 118 250 147 368 28 113 12 84 -28 -49z"/>
<path d="M231 1045 c0 -11 4 -27 9 -35 9 -13 10 -13 9 0 0 8 -4 24 -9 35 l-9
20 0 -20z"/>
<path d="M250 967 c0 -14 5 -29 10 -32 7 -4 8 3 4 22 -9 38 -14 42 -14 10z"/>
<path d="M216 960 c4 -14 13 -38 20 -55 11 -24 13 -25 8 -5 -4 14 -13 39 -20
55 -11 24 -13 25 -8 5z"/>
<path d="M2546 907 c-25 -82 -83 -206 -135 -290 -39 -65 -39 -74 1 -39 9 7 21
11 26 8 13 -8 105 171 96 187 -4 6 -3 8 1 4 5 -4 21 25 36 65 31 81 34 98 18
98 -5 0 -7 -5 -3 -12 4 -7 3 -8 -5 -4 -6 4 -9 11 -7 15 3 4 2 12 -2 18 -4 7
-16 -16 -26 -50z m-56 -222 c0 -7 -6 -15 -13 -18 -10 -4 -13 2 -9 19 4 24 22
24 22 -1z"/>
<path d="M1291 914 c0 -11 3 -14 6 -6 3 7 2 16 -1 19 -3 4 -6 -2 -5 -13z"/>
<path d="M276 895 c18 -99 194 -364 291 -437 l28 -22 -30 34 c-16 19 -39 44
-50 55 -73 75 -188 257 -233 370 l-12 30 6 -30z"/>
<path d="M250 862 c0 -24 88 -187 139 -257 117 -160 324 -331 466 -385 46 -18
25 -2 -45 34 -216 111 -399 298 -512 526 -26 52 -48 89 -48 82z"/>
<path d="M1251 852 c6 -10 18 -19 25 -19 19 0 18 2 -11 21 -25 16 -25 16 -14
-2z"/>
<path d="M1316 853 c-6 -14 -5 -15 5 -6 7 7 10 15 7 18 -3 3 -9 -2 -12 -12z"/>
<path d="M156 841 c-4 -5 -2 -11 4 -13 14 -4 21 -46 9 -53 -5 -4 -9 -1 -9 6 0
7 -3 10 -6 6 -10 -10 14 -42 32 -42 14 0 18 -9 18 -40 2 -100 217 -353 411
-481 53 -35 88 -53 97 -48 7 4 10 3 5 -1 -15 -17 161 -99 282 -131 81 -22 219
-44 266 -43 38 1 38 2 10 8 -30 7 -30 7 -5 13 13 4 22 9 20 12 -3 2 -57 11
-120 21 -63 9 -154 29 -202 45 -48 16 -96 27 -105 24 -13 -4 -15 -3 -5 4 10 7
3 14 -30 28 -24 10 -47 20 -52 22 -5 3 -6 0 -2 -6 8 -13 -10 -26 -24 -17 -8 5
-8 11 -1 19 8 9 0 18 -29 35 -73 41 -204 143 -269 210 -112 115 -246 314 -267
395 -7 29 -20 41 -28 27z m382 -522 c-2 -6 -8 -10 -13 -10 -5 0 -11 4 -13 10
-2 6 4 11 13 11 9 0 15 -5 13 -11z m532 -263 c0 -2 -7 -7 -16 -10 -8 -3 -12
-2 -9 4 6 10 25 14 25 6z"/>
<path d="M2597 843 c-13 -13 -7 -21 13 -16 11 3 20 9 20 14 0 10 -24 12 -33 2z"/>
<path d="M1288 798 c5 -5 16 -8 23 -6 8 3 3 7 -10 11 -17 4 -21 3 -13 -5z"/>
<path d="M1389 748 c-6 -21 -5 -38 2 -49 8 -11 9 -9 7 6 -2 13 2 19 11 17 12
-3 12 0 1 12 -12 15 -19 19 -21 14z"/>
<path d="M1342 731 c-11 -6 -9 -9 5 -13 12 -3 20 0 20 8 0 16 -6 17 -25 5z"/>
<path d="M753 638 c-48 -93 -73 -144 -73 -151 0 -4 25 -19 55 -34 45 -22 60
-25 82 -17 25 9 28 15 27 52 0 29 3 42 13 42 7 0 18 11 25 25 9 19 8 29 -6 49
-13 21 -82 66 -100 66 -3 0 -13 -15 -23 -32z m97 -52 c0 -26 -25 -38 -54 -25
-29 13 -31 21 -16 50 10 18 13 18 40 4 17 -9 30 -22 30 -29z m-44 -68 c14 -15
16 -23 7 -36 -11 -18 -34 -18 -70 0 -20 10 -21 13 -8 39 16 31 42 30 71 -3z"/>
<path d="M1794 625 c-6 -15 13 -215 20 -223 11 -10 26 12 26 36 0 21 9 32 38
49 37 21 39 21 62 3 22 -17 50 -17 50 0 0 12 -164 150 -178 150 -7 0 -15 -7
-18 -15z m96 -95 c0 -7 -51 -33 -55 -28 -1 2 -5 25 -9 53 l-6 49 35 -34 c19
-19 35 -37 35 -40z"/>
<path d="M1674 558 c3 -13 12 -44 20 -70 8 -27 12 -48 8 -48 -4 0 -34 22 -67
50 -61 50 -111 67 -101 33 3 -10 15 -57 27 -105 17 -72 25 -88 40 -88 23 0 23
-5 0 80 -11 39 -18 70 -15 70 3 0 36 -25 73 -55 38 -30 76 -55 86 -55 21 0 18
20 -17 137 -18 57 -27 73 -41 73 -15 0 -18 -5 -13 -22z"/>
<path d="M935 485 c-60 -78 -72 -105 -44 -105 6 0 18 9 27 20 16 19 20 20 57
7 31 -11 42 -21 49 -45 5 -18 15 -32 24 -32 12 0 13 16 7 103 -8 106 -16 137
-40 137 -7 0 -43 -38 -80 -85z m84 -27 c1 -29 -14 -35 -51 -20 -16 7 -15 11 9
45 24 33 28 36 34 20 4 -10 8 -30 8 -45z"/>
<path d="M1136 508 c-7 -44 -26 -176 -26 -181 0 -3 9 -7 20 -10 17 -4 20 0 20
27 0 29 15 56 31 56 3 0 20 -22 37 -50 24 -39 37 -50 57 -50 25 0 25 1 -20 63
l-46 62 46 43 c25 24 45 45 45 48 0 16 -41 -3 -85 -41 l-53 -45 2 52 c1 59
-20 79 -28 26z"/>
<path d="M2313 483 c-51 -64 -126 -137 -192 -187 -37 -28 -49 -42 -38 -44 10
-2 14 -9 9 -20 -5 -15 -3 -15 23 2 55 35 76 58 64 72 -13 16 -4 34 18 34 11 0
14 -6 10 -21 -5 -19 -3 -19 24 7 25 24 27 29 14 37 -14 7 -11 14 17 43 18 18
42 34 52 34 11 0 30 10 42 21 20 19 21 23 8 36 -8 8 -12 19 -9 24 16 26 -8 3
-42 -38z"/>
<path d="M2389 513 c-13 -16 -12 -17 4 -4 16 13 21 21 13 21 -2 0 -10 -8 -17
-17z"/>
<path d="M1390 517 c0 -2 -13 -48 -30 -103 -35 -117 -35 -114 -11 -114 11 0
21 9 25 24 4 16 15 25 37 30 52 10 65 7 77 -19 11 -24 42 -35 42 -15 0 5 -21
53 -47 105 -39 78 -52 95 -70 95 -13 0 -23 -2 -23 -3z m37 -127 c-18 -3 -33
-5 -35 -4 -2 1 3 23 9 49 l12 48 23 -44 22 -44 -31 -5z"/>
<path d="M600 426 c0 -21 273 -186 286 -173 3 2 -10 10 -28 17 -40 16 -212
125 -228 146 -12 13 -30 19 -30 10z"/>
<path d="M2007 217 c-29 -18 -43 -33 -37 -37 8 -5 7 -9 -4 -13 -8 -3 -18 -2
-21 3 -7 12 -72 -18 -79 -36 -3 -9 1 -11 12 -7 14 5 15 4 4 -8 -10 -11 -16
-11 -33 -1 -24 15 -40 8 -33 -16 4 -11 3 -13 -3 -5 -5 7 -17 10 -28 8 -11 -2
-27 -4 -35 -5 -11 0 -10 -3 4 -12 18 -10 18 -11 -5 -24 -36 -20 -6 -17 53 6
81 31 255 119 269 136 7 8 8 14 3 13 -27 -5 -36 1 -24 16 17 20 13 19 -43 -18z"/>
<path d="M985 209 c38 -18 75 -26 63 -13 -4 3 -9 5 -12 5 -3 -1 -22 6 -42 14
-51 21 -57 17 -9 -6z"/>
<path d="M892 205 c8 -9 150 -55 167 -55 9 0 -24 14 -72 30 -88 30 -105 34
-95 25z"/>
<path d="M1108 173 c6 -2 18 -2 25 0 6 3 1 5 -13 5 -14 0 -19 -2 -12 -5z"/>
<path d="M1283 153 c9 -2 23 -2 30 0 6 3 -1 5 -18 5 -16 0 -22 -2 -12 -5z"/>
<path d="M1363 153 c9 -2 23 -2 30 0 6 3 -1 5 -18 5 -16 0 -22 -2 -12 -5z"/>
<path d="M1100 139 c14 -6 63 -12 110 -14 82 -4 83 -3 20 4 -36 4 -85 11 -110
14 -38 6 -41 5 -20 -4z"/>
<path d="M1670 72 c0 -4 9 -8 20 -9 11 -1 18 2 15 8 -7 11 -35 12 -35 1z"/>
</g>
</svg>
